# xmcd
#
# Track frame offsets:
#	150
#	14553
#	39834
#	60500
#	76831
#	89412
#	107971
#	127691
#	147840
#	160912
#	168713
#	180568
#	204915
#	217474
#	230225
#	247552
#	257617
#	269565
#	289385
#	299387
#	321375
#	337629
#
# Disc length: 4674 seconds
#
# Revision: 0
# Processed by: cddbd v1.5.2PL0 Copyright (c) Steve Scherf et al.
# Submitted via: dBpowerAMP V4.0
#
DISCID=43124016
DTITLE=Various Artist - Best of Worship
DYEAR=2008
DGENRE=Gospel
TTITLE0=Isreal and New Breed/He Knows My Name
TTITLE1=Isreal and New Breed/Alpha and Omega
TTITLE2=Juanita Bynum/Jesus, What a Wonder You Are
TTITLE3=Ron Kenoly/Hallowed Be Thy Name
TTITLE4=Donnie Mccklurkin/Agnus Dei
TTITLE5=Juanita Bynum/You Are Holy
TTITLE6=Ron Kenoly/All Honour To You Lord
TTITLE7=Isreal and New Breed/Worship Medley
TTITLE8=Micheal Smith/Solid Rock I Stand
TTITLE9=Cece Winans/El Shaddai, Elohim and Adonnai
TTITLE10=Don Moen/Halleluyah To The Lamb
TTITLE11=Juanita Bynum/The Lord Is My Shephard
TTITLE12=Rubben Studdard/All To Jesus I Surrender
TTITLE13=Bob Fitts/You My All in All
TTITLE14=Max Lucardo/My Heart Will Trust In You
TTITLE15=Ron Keenoly/Annointing Fall on Me
TTITLE16=Bob Fitts/Blessed Be The Lord God
TTITLE17=Kirk Franklin/My Life is in Your Hands
TTITLE18=Bob Fitts/How Marvellous and Wonderful
TTITLE19=Jonathan Butler/Come Let Us Sing To The King
TTITLE20=Junaita Bynum/Wonderful Is Your Name
TTITLE21=Nicole C.Mullen 
EXTD=
EXTT0=
EXTT1=
EXTT2=
EXTT3=
EXTT4=
EXTT5=
EXTT6=
EXTT7=
EXTT8=
EXTT9=
EXTT10=
EXTT11=
EXTT12=
EXTT13=
EXTT14=
EXTT15=
EXTT16=
EXTT17=
EXTT18=
EXTT19=
EXTT20=
EXTT21=
PLAYORDER=
